<mxfile host="app.diagrams.net" modified="2023-12-23T02:52:41.552Z" agent="Mozilla/5.0 (Windows NT 10.0; Win64; x64) AppleWebKit/537.36 (KHTML, like Gecko) Chrome/120.0.0.0 Safari/537.36" version="22.1.11" etag="rzwT2FRRtzhI-P6bBiGD" type="github">
  <diagram name="Page-1" id="bOteRWwCTngSf28FR9m2">
    <mxGraphModel>
      <root>
        <mxCell id="0" />
        <mxCell id="1" parent="0" />
      </root>
    </mxGraphModel>
  </diagram>
</mxfile>
